<svg width="78" height="47" viewBox="0 0 78 47" fill="none" xmlns="http://www.w3.org/2000/svg">
<path d="M19.696 46.768C16.0267 46.768 12.7413 45.872 9.84 44.08C6.93867 42.2453 4.656 39.6 2.992 36.144C1.328 32.688 0.496 28.5067 0.496 23.6C0.496 18.6933 1.328 14.512 2.992 11.056C4.656 7.6 6.93867 4.976 9.84 3.184C12.7413 1.34933 16.0267 0.431999 19.696 0.431999C23.408 0.431999 26.6933 1.34933 29.552 3.184C32.4533 4.976 34.736 7.6 36.4 11.056C38.064 14.512 38.896 18.6933 38.896 23.6C38.896 28.5067 38.064 32.688 36.4 36.144C34.736 39.6 32.4533 42.2453 29.552 44.08C26.6933 45.872 23.408 46.768 19.696 46.768ZM19.696 38C21.4453 38 22.96 37.5093 24.24 36.528C25.5627 35.5467 26.5867 33.9893 27.312 31.856C28.08 29.7227 28.464 26.9707 28.464 23.6C28.464 20.2293 28.08 17.4773 27.312 15.344C26.5867 13.2107 25.5627 11.6533 24.24 10.672C22.96 9.69066 21.4453 9.2 19.696 9.2C17.9893 9.2 16.4747 9.69066 15.152 10.672C13.872 11.6533 12.848 13.2107 12.08 15.344C11.3547 17.4773 10.992 20.2293 10.992 23.6C10.992 26.9707 11.3547 29.7227 12.08 31.856C12.848 33.9893 13.872 35.5467 15.152 36.528C16.4747 37.5093 17.9893 38 19.696 38ZM43.2995 46V39.28L60.5795 22.96C61.9448 21.7227 62.9475 20.6133 63.5875 19.632C64.2275 18.6507 64.6542 17.7547 64.8675 16.944C65.1235 16.1333 65.2515 15.3867 65.2515 14.704C65.2515 12.912 64.6328 11.5467 63.3955 10.608C62.2008 9.62666 60.4302 9.136 58.0835 9.136C56.2062 9.136 54.4568 9.49866 52.8355 10.224C51.2568 10.9493 49.9128 12.08 48.8035 13.616L41.2515 8.752C42.9582 6.192 45.3475 4.16533 48.4195 2.672C51.4915 1.17867 55.0328 0.431999 59.0435 0.431999C62.3715 0.431999 65.2728 0.986665 67.7475 2.096C70.2648 3.16267 72.2062 4.67733 73.5715 6.64C74.9795 8.60267 75.6835 10.9493 75.6835 13.68C75.6835 15.1307 75.4915 16.5813 75.1075 18.032C74.7662 19.44 74.0408 20.9333 72.9315 22.512C71.8648 24.0907 70.2862 25.8613 68.1955 27.824L53.8595 41.328L51.8755 37.552H77.1555V46H43.2995Z" fill="#C0B7E8"/>
</svg>
