<svg width="77" height="47" viewBox="0 0 77 47" fill="none" xmlns="http://www.w3.org/2000/svg">
<path d="M19.696 46.768C16.0267 46.768 12.7413 45.872 9.84 44.08C6.93867 42.2453 4.656 39.6 2.992 36.144C1.328 32.688 0.496 28.5067 0.496 23.6C0.496 18.6933 1.328 14.512 2.992 11.056C4.656 7.6 6.93867 4.976 9.84 3.184C12.7413 1.34933 16.0267 0.431999 19.696 0.431999C23.408 0.431999 26.6933 1.34933 29.552 3.184C32.4533 4.976 34.736 7.6 36.4 11.056C38.064 14.512 38.896 18.6933 38.896 23.6C38.896 28.5067 38.064 32.688 36.4 36.144C34.736 39.6 32.4533 42.2453 29.552 44.08C26.6933 45.872 23.408 46.768 19.696 46.768ZM19.696 38C21.4453 38 22.96 37.5093 24.24 36.528C25.5627 35.5467 26.5867 33.9893 27.312 31.856C28.08 29.7227 28.464 26.9707 28.464 23.6C28.464 20.2293 28.08 17.4773 27.312 15.344C26.5867 13.2107 25.5627 11.6533 24.24 10.672C22.96 9.69066 21.4453 9.2 19.696 9.2C17.9893 9.2 16.4747 9.69066 15.152 10.672C13.872 11.6533 12.848 13.2107 12.08 15.344C11.3547 17.4773 10.992 20.2293 10.992 23.6C10.992 26.9707 11.3547 29.7227 12.08 31.856C12.848 33.9893 13.872 35.5467 15.152 36.528C16.4747 37.5093 17.9893 38 19.696 38ZM57.8365 46.768C54.7218 46.768 51.6285 46.3627 48.5565 45.552C45.4845 44.6987 42.8818 43.504 40.7485 41.968L44.7805 34.032C46.4872 35.2693 48.4712 36.2507 50.7325 36.976C52.9938 37.7013 55.2765 38.064 57.5805 38.064C60.1832 38.064 62.2312 37.552 63.7245 36.528C65.2178 35.504 65.9645 34.096 65.9645 32.304C65.9645 30.5973 65.3032 29.2533 63.9805 28.272C62.6578 27.2907 60.5245 26.8 57.5805 26.8H52.8445V19.952L65.3245 5.808L66.4765 9.52H42.9885V1.2H74.3485V7.92L61.9325 22.064L56.6845 19.056H59.6925C65.1965 19.056 69.3565 20.2933 72.1725 22.768C74.9885 25.2427 76.3965 28.4213 76.3965 32.304C76.3965 34.8213 75.7352 37.1893 74.4125 39.408C73.0898 41.584 71.0632 43.3547 68.3325 44.72C65.6018 46.0853 62.1032 46.768 57.8365 46.768Z" fill="#C0B7E8"/>
</svg>
