<svg width="24" height="24" viewBox="0 0 24 24" fill="none" xmlns="http://www.w3.org/2000/svg">
<path d="M12 13C12.5523 13 13 12.5523 13 12C13 11.4477 12.5523 11 12 11C11.4477 11 11 11.4477 11 12C11 12.5523 11.4477 13 12 13Z" fill="#939393"/>
<path fill-rule="evenodd" clip-rule="evenodd" d="M12 23C10.4063 23 8.98682 21.3597 8.07123 18.8047C5.40075 19.2893 3.27049 18.8801 2.47367 17.5C1.67685 16.1198 2.38759 14.0704 4.14246 12C2.3876 9.92957 1.67686 7.88013 2.47368 6.5C3.2705 5.11986 5.40076 4.71066 8.07125 5.19524C8.98684 2.64025 10.4063 1 12 1C13.5936 1 15.0131 2.64022 15.9287 5.19518C18.5992 4.71062 20.7294 5.11982 21.5262 6.49995C22.3231 7.88009 21.6123 9.92955 19.8574 12C21.6123 14.0704 22.3231 16.1199 21.5262 17.5C20.7294 18.8801 18.5992 19.2893 15.9287 18.8048C15.0131 21.3598 13.5936 23 12 23ZM14.6505 18.5152C14.5559 18.769 14.4563 19.011 14.352 19.2402C13.4869 21.1435 12.5574 21.7 12 21.7C11.4425 21.7 10.5131 21.1435 9.64793 19.2402C9.54371 19.011 9.44404 18.7689 9.34946 18.5151C10.2021 18.2853 11.0929 17.9748 11.9999 17.5857C12.907 17.9748 13.7978 18.2853 14.6505 18.5152ZM10.3953 16.8225C9.90221 17.0005 9.42037 17.1513 8.95435 17.2751C8.82853 16.8096 8.71825 16.3169 8.62583 15.8009C8.91011 15.9813 9.20164 16.1579 9.49996 16.3301C9.79827 16.5024 10.097 16.6665 10.3953 16.8225ZM15.0456 17.2752C14.5795 17.1514 14.0976 17.0005 13.6045 16.8225C13.9029 16.6665 14.2016 16.5023 14.5 16.3301C14.7983 16.1578 15.0899 15.9812 15.3742 15.8008C15.2817 16.3169 15.1714 16.8097 15.0456 17.2752ZM13.85 15.2042C14.4707 14.8459 15.0571 14.4694 15.6054 14.0815C15.6671 13.4127 15.7 12.7167 15.7 12C15.7 11.2833 15.6671 10.5872 15.6054 9.91844C15.0571 9.53056 14.4707 9.15407 13.85 8.79571C13.2292 8.43734 12.61 8.11774 11.9999 7.8368C11.3898 8.11773 10.7706 8.43731 10.15 8.79566C9.52927 9.15401 8.9429 9.53047 8.39458 9.91834C8.33283 10.5872 8.29999 11.2833 8.29999 12C8.29999 12.7167 8.33283 13.4128 8.39457 14.0816C8.9429 14.4695 9.52928 14.8459 10.15 15.2043C10.7706 15.5626 11.3898 15.8822 11.9999 16.1631C12.61 15.8822 13.2292 15.5626 13.85 15.2042ZM16.317 17.553C16.5443 16.6996 16.7208 15.7729 16.8374 14.7928C17.6278 14.2018 18.3421 13.5856 18.9675 12.9622C19.14 13.171 19.2998 13.3783 19.4462 13.5832C20.662 15.2841 20.6791 16.3672 20.4004 16.85C20.1217 17.3328 19.175 17.8595 17.0942 17.6571C16.8435 17.6327 16.5841 17.598 16.317 17.553ZM16.9787 13.0216C17.3794 12.6835 17.751 12.3417 18.0912 12C17.751 11.6583 17.3794 11.3164 16.9787 10.9784C16.9928 11.3147 17 11.6555 17 12C17 12.3445 16.9928 12.6852 16.9787 13.0216ZM19.4462 10.4168C19.2998 10.6217 19.14 10.829 18.9675 11.0378C18.3421 10.4143 17.6278 9.79812 16.8374 9.20714C16.7208 8.22706 16.5443 7.30031 16.317 6.44695C16.5841 6.40196 16.8435 6.36728 17.0941 6.34289C19.175 6.14047 20.1217 6.66719 20.4004 7.14995C20.6791 7.63272 20.662 8.71588 19.4462 10.4168ZM14.352 4.75977C14.4562 4.98901 14.5559 5.23098 14.6505 5.48476C13.7978 5.71461 12.907 6.02514 11.9999 6.41421C11.0929 6.02517 10.2021 5.71466 9.34948 5.48482C9.44405 5.23102 9.54372 4.98903 9.64793 4.75977C10.5131 2.85645 11.4425 2.3 12 2.3C12.5574 2.3 13.4869 2.85645 14.352 4.75977ZM15.0456 6.72478C14.5795 6.84856 14.0976 6.99942 13.6045 7.17744C13.9029 7.33345 14.2016 7.49762 14.5 7.66987C14.7983 7.84212 15.0898 8.01876 15.3741 8.19916C15.2817 7.68305 15.1714 7.19029 15.0456 6.72478ZM8.95437 6.72484C9.42038 6.84861 9.90222 6.99946 10.3953 7.17745C10.097 7.33344 9.79827 7.49759 9.49995 7.66982C9.20163 7.84206 8.91012 8.01867 8.62584 8.19906C8.71826 7.68301 8.82855 7.19031 8.95437 6.72484ZM7.68292 6.44701C7.45565 7.30032 7.27916 8.22702 7.16258 9.20704C6.3721 9.79804 5.65775 10.4143 5.03237 11.0378C4.85987 10.829 4.70014 10.6217 4.55371 10.4168C3.33796 8.71593 3.32079 7.63277 3.59951 7.15C3.87824 6.66723 4.82487 6.14052 6.90576 6.34294C7.15642 6.36733 7.41583 6.40201 7.68292 6.44701ZM7.16257 14.7929C6.37209 14.2019 5.65775 13.5857 5.03237 12.9622C4.85986 13.171 4.70013 13.3783 4.5537 13.5831C3.33795 15.284 3.32078 16.3672 3.5995 16.85C3.87823 17.3327 4.82486 17.8594 6.90576 17.657C7.15641 17.6326 7.41582 17.5979 7.68291 17.5529C7.45564 16.6996 7.27915 15.7729 7.16257 14.7929ZM7.02127 10.9782C6.62052 11.3163 6.24892 11.6582 5.90869 12C6.24892 12.3417 6.62052 12.6836 7.02127 13.0217C7.00718 12.6853 6.99999 12.3445 6.99999 12C6.99999 11.6555 7.00718 11.3147 7.02127 10.9782Z" fill="#939393"/>
</svg>
